<svg width="263" height="262" viewBox="0 0 263 262" fill="none" xmlns="http://www.w3.org/2000/svg">
<line x1="42.8804" y1="218.735" x2="222.453" y2="39.1631" stroke="#38BDF8" stroke-width="25" stroke-linecap="square"/>
<line x1="198.485" y1="6" x2="255.75" y2="63.2647" stroke="#38BDF8" stroke-width="12" stroke-linecap="round"/>
<line x1="8.48528" y1="196" x2="65.75" y2="253.265" stroke="#38BDF8" stroke-width="12" stroke-linecap="round"/>
<line x1="8" y1="63.2647" x2="65.2647" y2="6" stroke="#38BDF8" stroke-width="12" stroke-linecap="round"/>
<line x1="197" y1="253.265" x2="254.265" y2="196" stroke="#38BDF8" stroke-width="12" stroke-linecap="round"/>
<line x1="43.9385" y1="42.5543" x2="217.261" y2="215.877" stroke="#38BDF8" stroke-width="25" stroke-linecap="square"/>
<path d="M105.231 86.1712C120.346 100.262 143.58 100.378 157.767 86.1912L131.489 112.469L105.21 86.1912L105.231 86.1712Z" fill="#38BDF8"/>
<path d="M175.373 103.963C161.282 119.078 161.166 142.313 175.353 156.5L149.075 130.222L175.353 103.943L175.373 103.963Z" fill="#38BDF8"/>
<path d="M87.8292 156.48C101.92 141.365 102.036 118.131 87.8493 103.943L114.128 130.222L87.8493 156.5L87.8292 156.48Z" fill="#38BDF8"/>
<path d="M157.633 173.881C142.518 159.79 119.284 159.674 105.097 173.861L131.375 147.583L157.653 173.861L157.633 173.881Z" fill="#38BDF8"/>
</svg>
